<?xml version="1.0" encoding="utf-8"?>
<!-- Generator: Adobe Illustrator 18.1.1, SVG Export Plug-In . SVG Version: 6.00 Build 0)  -->
<svg version="1.1" id="Layer_1" xmlns="http://www.w3.org/2000/svg" xmlns:xlink="http://www.w3.org/1999/xlink" x="0px" y="0px"
	 viewBox="0 0 466 326" enable-background="new 0 0 466 326" xml:space="preserve">
<path fill="#FFFFFF" d="M137.8,111.3c0,0,13.2-25.1,35.9-23.6c22.7,1.5,21.6,16.9,21.6,16.9s-15,5.2-36.2,5
	C137.8,109.5,137.8,111.3,137.8,111.3z"/>
<path fill="#FFFFFF" d="M232.6,96.5c0,0-9.2-14.2,7.7-21.9s37.7,2.5,42.3,11C249,99.5,232.6,96.5,232.6,96.5z"/>
<path fill="#4E7167" d="M239.5,96.7c-0.9-8.6,5.1-14.2,11.7-14.2c6.3,0,10.3,4.8,11.9,9.8C250.3,96.6,239.5,96.7,239.5,96.7z"/>
<path fill="#2D2D2D" d="M256.9,94.2c-3.4,1.1-12,2.1-12,2.1c-0.5-3.1,1.7-6.2,5-6.8S256.2,90.7,256.9,94.2z"/>
<circle fill="#FFFFFF" cx="247.1" cy="90.9" r="1.2"/>
<path fill="#4E7167" d="M159.2,109.7c0.5-8.6,7.4-13.6,13.9-12.5c6.2,1,9,5.2,9.8,10.5C173.1,110.5,159.2,109.7,159.2,109.7z"/>
<path fill="#2D2D2D" d="M178.1,108.7c-0.5,0.6-12,1.1-12,1.1c-0.3-3.2,2.2-6,5.5-6.3C174.9,103.2,177.6,105.9,178.1,108.7z"/>
<circle fill="#FFFFFF" cx="168" cy="104.9" r="1.2"/>
<path fill="#E47031" d="M242.5,114.5c-18.5,10.1-45.6,7.7-45.6,7.7c0-11.7,11.3-25.1,23.6-25.1S242.5,102.8,242.5,114.5z"/>
<path fill="#650900" d="M211.3,116.2c-1.8,0.3-3.2,2.6-3.2,3.4c0,0.9,1.9,2.8,3.2,2.8s4.1-1.4,4.1-3.1S213.2,115.9,211.3,116.2z"/>
<path fill="#650900" d="M232.3,118.7c1.7-0.2,3.4-1.6,3.6-2.5s-1.1-3.4-3.8-2.8s-3.4,3.5-3.6,4.5
	C228.3,118.8,230.6,118.9,232.3,118.7z"/>
<path fill="#F4C44E" d="M223.9,119.9c0,0,62.7-18,103.9-36.9s69.6,6.9,69.6,6.9s42.1,16.3,53.3,127.1c0,0-12.9-25.8-16.3-27.5
	c-3.4-1.7-3.4-1.7-3.4-1.7s11.2,49.8,3.4,53.3c0,0-18-29.2-21.5-29.2c-3.4,0-0.9,33.5-3.4,36.9s-25.8-45.5-29.2-46.4
	c-3.4-0.9,0.9,27.5,0.9,27.5l-35.2-26.6l7.7,16.3l-55.8-34.4l7.7,12c0,0-67.1-15-76.5-36.5L223.9,119.9z"/>
<path fill="#F4C44E" d="M224,119.8c0,0-67.8,3.3-114.6-3.6c-46.9-6.9-67.8,27.3-67.8,27.3S4.2,172.2,25.5,286.6
	c0,0,8.3-40.5,11.3-35.1c-2.3,6,1.8,51.4,12.2,54.4c-2.4-14.2,9.5-34.6,13-35.6s10.7,33.3,14.3,36c0.1-16.4,12.5-53.2,15.7-55.1
	c3.2-1.9,6.5,24,7.2,27.8c6.2-19.9,27.5-37,27.5-37l-3,18.6c0,0,38.4-53.9,45.9-50.8c-7.1,3.7-4.2,14.3-4.2,14.3
	s61.6-38.6,64.8-62.9L224,119.8z"/>
<path fill="#F4C44E" d="M219.7,47.8l5.6,20.2c0,0,13.3-20.2,48.5-13.7s35.6,27.5,35.6,27.5s4.3-14.1-7.3-25.3
	c0,0,12.9,1.3,22.3,15.5c0,0-1.4-17.6-15.5-26.2c0,0,10.9-0.8,22.5,19.4c0,0,0.2-22.1-21.9-30.2c0,0,4.3-2.9,13.6,3.5
	c-5.9-9.2-11.6-10.3-19.8-11.2c0,0,9.4-3.9,16.3,0C319.8,27.1,259.7-11.1,219.7,47.8z"/>
<path fill="#F4C44E" d="M191,60.2l3.4,18.5c0,0-53.7-14.6-86.3,31.8c0,0-0.9-6.9,2.6-11.6c0,0-11.2,10-12,13.7
	c0,0,1.7-14.6,10.7-23.6c0,0-12.5,7.3-15,23.6c0,0-2.6-6.9,0-11.6c0,0-10.2,6.9-10.7,11.6c0,0,0.4-17.2,20.6-34.4
	c0,0-8.2-2.1-15.9,8.2c0,0,6.7-16.6,14.8-22.6c0,0-12.7,0.1-16,2.8c-4.1,3.5,10.3-14.9,39.5-18.4c0,0-11-2.1-26.2,2.7
	C106.8,45,137,27,191,60.2z"/>
</svg>
